# Blender v3.2.1 OBJ File: 'ice.blend'
# www.blender.org
mtllib hole.mtl
o Circle_Circle.001
v 0.000000 0.000000 -0.868963
v -0.169526 0.000000 -0.852266
v -0.332538 0.000000 -0.802817
v -0.482770 0.000000 -0.722516
v -0.614450 0.000000 -0.614450
v -0.722516 0.000000 -0.482770
v -0.802817 0.000000 -0.332538
v -0.852266 0.000000 -0.169526
v -0.868963 0.000000 0.000000
v -0.852266 0.000000 0.169526
v -0.802817 0.000000 0.332538
v -0.722516 0.000000 0.482770
v -0.614450 0.000000 0.614450
v -0.482770 0.000000 0.722516
v -0.332538 0.000000 0.802817
v -0.169526 0.000000 0.852266
v 0.000000 0.000000 0.868963
v 0.169526 0.000000 0.852266
v 0.332538 0.000000 0.802817
v 0.482770 0.000000 0.722516
v 0.614449 0.000000 0.614450
v 0.722516 0.000000 0.482770
v 0.802817 0.000000 0.332538
v 0.852266 0.000000 0.169526
v 0.868963 0.000000 -0.000000
v 0.852266 0.000000 -0.169526
v 0.802817 0.000000 -0.332538
v 0.722516 0.000000 -0.482770
v 0.614450 0.000000 -0.614449
v 0.482770 0.000000 -0.722516
v 0.332538 0.000000 -0.802817
v 0.169526 0.000000 -0.852266
v 0.000000 -1.930138 -0.868963
v -0.169526 -1.930138 -0.852266
v -0.332538 -1.930138 -0.802817
v -0.482770 -1.930138 -0.722516
v -0.614450 -1.930138 -0.614450
v -0.722516 -1.930138 -0.482770
v -0.802817 -1.930138 -0.332538
v -0.852266 -1.930138 -0.169526
v -0.868963 -1.930138 0.000000
v -0.852266 -1.930138 0.169526
v -0.802817 -1.930138 0.332538
v -0.722516 -1.930138 0.482770
v -0.614450 -1.930138 0.614450
v -0.482770 -1.930138 0.722516
v -0.332538 -1.930138 0.802817
v -0.169526 -1.930138 0.852266
v 0.000000 -1.930138 0.868963
v 0.169526 -1.930138 0.852266
v 0.332538 -1.930138 0.802817
v 0.482770 -1.930138 0.722516
v 0.614449 -1.930138 0.614450
v 0.722516 -1.930138 0.482770
v 0.802817 -1.930138 0.332538
v 0.852266 -1.930138 0.169526
v 0.868963 -1.930138 -0.000000
v 0.852266 -1.930138 -0.169526
v 0.802817 -1.930138 -0.332538
v 0.722516 -1.930138 -0.482770
v 0.614450 -1.930138 -0.614449
v 0.482770 -1.930138 -0.722516
v 0.332538 -1.930138 -0.802817
v 0.169526 -1.930138 -0.852266
v 0.000000 -1.930138 -0.868963
v -0.169526 -1.930138 -0.852266
v -0.332538 -1.930138 -0.802817
v -0.482770 -1.930138 -0.722516
v -0.614450 -1.930138 -0.614450
v -0.722516 -1.930138 -0.482770
v -0.802817 -1.930138 -0.332538
v -0.852266 -1.930138 -0.169526
v -0.868963 -1.930138 0.000000
v -0.852266 -1.930138 0.169526
v -0.802817 -1.930138 0.332538
v -0.722516 -1.930138 0.482770
v -0.614450 -1.930138 0.614450
v -0.482770 -1.930138 0.722516
v -0.332538 -1.930138 0.802817
v -0.169526 -1.930138 0.852266
v 0.000000 -1.930138 0.868963
v 0.169526 -1.930138 0.852266
v 0.332538 -1.930138 0.802817
v 0.482770 -1.930138 0.722516
v 0.614449 -1.930138 0.614450
v 0.722516 -1.930138 0.482770
v 0.802817 -1.930138 0.332538
v 0.852266 -1.930138 0.169526
v 0.868963 -1.930138 -0.000000
v 0.852266 -1.930138 -0.169526
v 0.802817 -1.930138 -0.332538
v 0.722516 -1.930138 -0.482770
v 0.614450 -1.930138 -0.614449
v 0.482770 -1.930138 -0.722516
v 0.332538 -1.930138 -0.802817
v 0.169526 -1.930138 -0.852266
v 1.420739 0.000000 0.000000
v 1.136591 0.284148 0.000000
v 0.852443 0.000000 0.000000
v 1.136591 -0.284148 0.000000
v 1.357619 0.000000 -0.418770
v 1.086095 0.284148 -0.335016
v 0.814572 0.000000 -0.251262
v 1.086095 -0.284148 -0.335016
v 1.173869 0.000000 -0.800331
v 0.939095 0.284148 -0.640265
v 0.704322 0.000000 -0.480198
v 0.939095 -0.284148 -0.640265
v 0.885816 0.000000 -1.110778
v 0.708653 0.284148 -0.888623
v 0.531490 0.000000 -0.666467
v 0.708653 -0.284148 -0.888623
v 0.519054 0.000000 -1.322528
v 0.415243 0.284148 -1.058023
v 0.311433 0.000000 -0.793517
v 0.415243 -0.284148 -1.058023
v 0.106172 0.000000 -1.416766
v 0.084937 0.284148 -1.133413
v 0.063703 0.000000 -0.850060
v 0.084937 -0.284148 -1.133413
v -0.316144 0.000000 -1.385118
v -0.252915 0.284148 -1.108094
v -0.189686 0.000000 -0.831071
v -0.252915 -0.284148 -1.108094
v -0.710369 0.000000 -1.230396
v -0.568295 0.284148 -0.984317
v -0.426221 0.000000 -0.738238
v -0.568295 -0.284148 -0.984317
v -1.041475 0.000000 -0.966348
v -0.833180 0.284148 -0.773078
v -0.624885 0.000000 -0.579809
v -0.833180 -0.284148 -0.773078
v -1.280041 0.000000 -0.616436
v -1.024033 0.284148 -0.493148
v -0.768025 0.000000 -0.369861
v -1.024033 -0.284148 -0.493148
v -1.404870 0.000000 -0.211750
v -1.123896 0.284148 -0.169400
v -0.842922 0.000000 -0.127050
v -1.123896 -0.284148 -0.169400
v -1.404870 0.000000 0.211750
v -1.123896 0.284148 0.169400
v -0.842922 0.000000 0.127050
v -1.123896 -0.284148 0.169400
v -1.280042 0.000000 0.616435
v -1.024033 0.284148 0.493148
v -0.768025 0.000000 0.369861
v -1.024033 -0.284148 0.493148
v -1.041475 0.000000 0.966348
v -0.833180 0.284148 0.773078
v -0.624885 0.000000 0.579809
v -0.833180 -0.284148 0.773078
v -0.710369 0.000000 1.230396
v -0.568295 0.284148 0.984317
v -0.426221 0.000000 0.738238
v -0.568295 -0.284148 0.984317
v -0.316144 0.000000 1.385118
v -0.252915 0.284148 1.108094
v -0.189686 0.000000 0.831071
v -0.252915 -0.284148 1.108094
v 0.106172 0.000000 1.416766
v 0.084937 0.284148 1.133413
v 0.063703 0.000000 0.850060
v 0.084937 -0.284148 1.133413
v 0.519054 0.000000 1.322529
v 0.415243 0.284148 1.058023
v 0.311432 0.000000 0.793517
v 0.415243 -0.284148 1.058023
v 0.885815 0.000000 1.110779
v 0.708652 0.284148 0.888623
v 0.531489 0.000000 0.666467
v 0.708652 -0.284148 0.888623
v 1.173869 0.000000 0.800330
v 0.939096 0.284148 0.640264
v 0.704322 0.000000 0.480198
v 0.939096 -0.284148 0.640264
v 1.357619 0.000000 0.418770
v 1.086095 0.284148 0.335016
v 0.814572 0.000000 0.251262
v 1.086095 -0.284148 0.335016
vt 0.522186 0.500000
vt 0.532209 0.500000
vt 0.532209 0.371228
vt 0.522186 0.371228
vt 0.511310 0.500000
vt 0.500000 0.500000
vt 0.500000 0.371228
vt 0.511310 0.371228
vt 0.459006 0.500000
vt 0.451796 0.500000
vt 0.451796 0.371228
vt 0.459006 0.371228
vt 0.511310 0.500000
vt 0.511310 0.371228
vt 0.522186 0.500000
vt 0.522186 0.371228
vt 0.467791 0.500000
vt 0.467791 0.371228
vt 0.500000 0.500000
vt 0.500000 0.371228
vt 0.532209 0.500000
vt 0.532209 0.371228
vt 0.477814 0.500000
vt 0.477814 0.371228
vt 0.488690 0.500000
vt 0.488690 0.371228
vt 0.540994 0.500000
vt 0.540994 0.371228
vt 0.488690 0.500000
vt 0.488690 0.371228
vt 0.477814 0.500000
vt 0.477814 0.371228
vt 0.548204 0.500000
vt 0.548204 0.371228
vt 0.467791 0.500000
vt 0.467791 0.371228
vt 0.553561 0.500000
vt 0.553561 0.371228
vt 0.459006 0.500000
vt 0.459006 0.371228
vt 0.556860 0.500000
vt 0.556860 0.371228
vt 0.451796 0.500000
vt 0.451796 0.371228
vt 0.557974 0.500000
vt 0.557974 0.371228
vt 0.446439 0.500000
vt 0.446439 0.371228
vt 0.556860 0.500000
vt 0.556860 0.371228
vt 0.443140 0.500000
vt 0.443140 0.371228
vt 0.553561 0.500000
vt 0.553561 0.371228
vt 0.442026 0.500000
vt 0.442026 0.371228
vt 0.548204 0.500000
vt 0.548204 0.371228
vt 0.443140 0.500000
vt 0.443140 0.371228
vt 0.540994 0.500000
vt 0.540994 0.371228
vt 0.446439 0.500000
vt 0.446439 0.371228
vt 0.451796 0.371228
vt 0.446439 0.371228
vt 0.418585 -0.007865
vt 0.409027 -0.008335
vt 0.399561 -0.006936
vt 0.390548 -0.003721
vt 0.382332 0.001189
vt 0.375228 0.007605
vt 0.369510 0.015285
vt 0.365396 0.023935
vt 0.363048 0.033223
vt 0.362557 0.042795
vt 0.363944 0.052282
vt 0.367157 0.061320
vt 0.372076 0.069559
vt 0.378511 0.076681
vt 0.386216 0.082410
vt 0.394894 0.086525
vt 0.404211 0.088865
vt 0.413806 0.089339
vt 0.423308 0.087929
vt 0.432350 0.084690
vt 0.440584 0.079748
vt 0.447691 0.073294
vt 0.453399 0.065578
vt 0.457488 0.056899
vt 0.459803 0.047593
vt 0.460257 0.038018
vt 0.458834 0.028542
vt 0.455592 0.019528
vt 0.450656 0.011322
vt 0.444217 0.004237
vt 0.436523 -0.001457
vt 0.427868 -0.005542
vt 0.557974 0.371228
vt 0.556860 0.371228
vt 0.443140 0.371228
vt 0.553561 0.371228
vt 0.442026 0.371228
vt 0.548204 0.371228
vt 0.443140 0.371228
vt 0.540994 0.371228
vt 0.446439 0.371228
vt 0.532209 0.371228
vt 0.451796 0.371228
vt 0.522186 0.371228
vt 0.500000 0.371228
vt 0.511310 0.371228
vt 0.459006 0.371228
vt 0.511310 0.371228
vt 0.522186 0.371228
vt 0.467791 0.371228
vt 0.500000 0.371228
vt 0.532209 0.371228
vt 0.477814 0.371228
vt 0.488690 0.371228
vt 0.540994 0.371228
vt 0.488690 0.371228
vt 0.477814 0.371228
vt 0.548204 0.371228
vt 0.467791 0.371228
vt 0.553561 0.371228
vt 0.459006 0.371228
vt 0.556860 0.371228
vt 0.523810 0.500000
vt 0.571429 0.500000
vt 0.571429 0.750000
vt 0.523810 0.750000
vt 0.571429 1.000000
vt 0.523810 1.000000
vt 0.523810 0.000000
vt 0.571429 0.000000
vt 0.571429 0.250000
vt 0.523810 0.250000
vt 0.619048 0.500000
vt 0.619048 0.750000
vt 0.619048 1.000000
vt 0.619048 0.000000
vt 0.619048 0.250000
vt 0.666667 0.500000
vt 0.666667 0.750000
vt 0.666667 1.000000
vt 0.666667 0.000000
vt 0.666667 0.250000
vt 0.714286 0.500000
vt 0.714286 0.750000
vt 0.714286 1.000000
vt 0.714286 0.000000
vt 0.714286 0.250000
vt 0.761905 0.500000
vt 0.761905 0.750000
vt 0.761905 1.000000
vt 0.761905 0.000000
vt 0.761905 0.250000
vt 0.809524 0.500000
vt 0.809524 0.750000
vt 0.809524 1.000000
vt 0.809524 0.000000
vt 0.809524 0.250000
vt 0.857143 0.500000
vt 0.857143 0.750000
vt 0.857143 1.000000
vt 0.857143 0.000000
vt 0.857143 0.250000
vt 0.904762 0.500000
vt 0.904762 0.750000
vt 0.904762 1.000000
vt 0.904762 0.000000
vt 0.904762 0.250000
vt 0.952381 0.500000
vt 0.952381 0.750000
vt 0.952381 1.000000
vt 0.952381 0.000000
vt 0.952381 0.250000
vt 1.000000 0.500000
vt 1.000000 0.750000
vt 1.000000 1.000000
vt 1.000000 0.000000
vt 1.000000 0.250000
vt 0.000000 0.500000
vt 0.047619 0.500000
vt 0.047619 0.750000
vt 0.000000 0.750000
vt 0.047619 1.000000
vt 0.000000 1.000000
vt 0.000000 0.000000
vt 0.047619 0.000000
vt 0.047619 0.250000
vt 0.000000 0.250000
vt 0.095238 0.500000
vt 0.095238 0.750000
vt 0.095238 1.000000
vt 0.095238 0.000000
vt 0.095238 0.250000
vt 0.142857 0.500000
vt 0.142857 0.750000
vt 0.142857 1.000000
vt 0.142857 0.000000
vt 0.142857 0.250000
vt 0.190476 0.500000
vt 0.190476 0.750000
vt 0.190476 1.000000
vt 0.190476 0.000000
vt 0.190476 0.250000
vt 0.238095 0.500000
vt 0.238095 0.750000
vt 0.238095 1.000000
vt 0.238095 0.000000
vt 0.238095 0.250000
vt 0.285714 0.500000
vt 0.285714 0.750000
vt 0.285714 1.000000
vt 0.285714 0.000000
vt 0.285714 0.250000
vt 0.333333 0.500000
vt 0.333333 0.750000
vt 0.333333 1.000000
vt 0.333333 0.000000
vt 0.333333 0.250000
vt 0.380952 0.500000
vt 0.380952 0.750000
vt 0.380952 1.000000
vt 0.380952 0.000000
vt 0.380952 0.250000
vt 0.428571 0.500000
vt 0.428571 0.750000
vt 0.428571 1.000000
vt 0.428571 0.000000
vt 0.428571 0.250000
vt 0.476190 0.500000
vt 0.476190 0.750000
vt 0.476190 1.000000
vt 0.476190 0.000000
vt 0.476190 0.250000
vn -0.3827 0.0000 0.9239
vn -0.5556 0.0000 0.8315
vn -0.2896 0.0000 0.9572
vn -0.1946 0.0000 0.9809
vn -0.1951 0.0000 -0.9808
vn -0.0000 0.0000 -1.0000
vn -0.0000 0.0000 1.0000
vn -0.9925 0.0000 0.1224
vn 0.7071 0.0000 -0.7071
vn 0.8315 0.0000 -0.5556
vn 0.8798 0.0000 0.4754
vn 0.9216 0.0000 0.3881
vn -0.1951 0.0000 0.9808
vn -0.0978 0.0000 0.9952
vn -0.3827 0.0000 -0.9239
vn -0.9783 0.0000 0.2070
vn 0.5556 0.0000 -0.8315
vn 0.9546 0.0000 0.2979
vn -0.5556 0.0000 -0.8315
vn -0.9546 0.0000 0.2979
vn 0.3827 0.0000 -0.9239
vn 0.9783 0.0000 0.2070
vn 0.1951 0.0000 0.9808
vn 0.0978 0.0000 0.9952
vn -0.7071 0.0000 -0.7071
vn -0.9216 0.0000 0.3881
vn 0.1951 0.0000 -0.9808
vn 0.9925 0.0000 0.1224
vn 0.3827 0.0000 0.9239
vn 0.1946 0.0000 0.9809
vn -0.8315 0.0000 -0.5556
vn -0.8798 0.0000 0.4754
vn 0.5556 0.0000 0.8315
vn 0.2896 0.0000 0.9572
vn -0.9239 0.0000 -0.3827
vn -0.8295 0.0000 0.5586
vn 0.7071 0.0000 0.7071
vn 0.3818 0.0000 0.9243
vn -0.9808 0.0000 -0.1951
vn -0.7711 0.0000 0.6367
vn 0.8315 0.0000 0.5556
vn 0.4703 0.0000 0.8825
vn -1.0000 0.0000 0.0000
vn -0.7054 0.0000 0.7088
vn 0.9239 0.0000 0.3827
vn 0.5542 0.0000 0.8324
vn -0.9808 0.0000 0.1951
vn -0.6329 0.0000 0.7743
vn 0.9808 0.0000 0.1951
vn 0.6329 0.0000 0.7743
vn -0.9239 0.0000 0.3827
vn -0.5542 0.0000 0.8324
vn 1.0000 0.0000 0.0000
vn 0.7054 0.0000 0.7088
vn -0.8315 0.0000 0.5556
vn -0.4703 0.0000 0.8825
vn 0.9808 0.0000 -0.1951
vn 0.7711 0.0000 0.6367
vn -0.7071 0.0000 0.7071
vn -0.3818 0.0000 0.9243
vn 0.9239 0.0000 -0.3827
vn 0.8295 0.0000 0.5586
vn 0.0000 -0.6839 0.7295
vn 0.9556 -0.0000 -0.2948
vn 0.0641 0.9977 -0.0198
vn 0.0671 0.9977 0.0000
vn -0.9556 0.0000 0.2948
vn 0.0641 -0.9977 -0.0198
vn 0.0671 -0.9977 0.0000
vn 0.8262 -0.0000 -0.5633
vn 0.0554 0.9977 -0.0378
vn -0.8262 0.0000 0.5633
vn 0.0554 -0.9977 -0.0378
vn 0.6235 0.0000 -0.7818
vn 0.0418 0.9977 -0.0524
vn -0.6235 0.0000 0.7818
vn 0.0418 -0.9977 -0.0524
vn 0.3653 0.0000 -0.9309
vn 0.0245 0.9977 -0.0624
vn -0.3653 0.0000 0.9309
vn 0.0245 -0.9977 -0.0624
vn 0.0747 0.0000 -0.9972
vn 0.0050 0.9977 -0.0669
vn -0.0747 0.0000 0.9972
vn 0.0050 -0.9977 -0.0669
vn -0.2225 0.0000 -0.9749
vn -0.0149 0.9977 -0.0654
vn 0.2225 0.0000 0.9749
vn -0.0149 -0.9977 -0.0654
vn -0.5000 0.0000 -0.8660
vn -0.0335 0.9977 -0.0581
vn 0.5000 -0.0000 0.8660
vn -0.0335 -0.9977 -0.0581
vn -0.7331 0.0000 -0.6802
vn -0.0492 0.9977 -0.0456
vn 0.7331 -0.0000 0.6802
vn -0.0492 -0.9977 -0.0456
vn -0.9010 0.0000 -0.4339
vn -0.0604 0.9977 -0.0291
vn 0.9010 0.0000 0.4339
vn -0.0604 -0.9977 -0.0291
vn -0.9888 0.0000 -0.1490
vn -0.0663 0.9977 -0.0100
vn 0.9888 -0.0000 0.1490
vn -0.0663 -0.9977 -0.0100
vn -0.9888 0.0000 0.1490
vn -0.0663 0.9977 0.0100
vn 0.9888 0.0000 -0.1490
vn -0.0663 -0.9977 0.0100
vn -0.9010 -0.0000 0.4339
vn -0.0604 0.9977 0.0291
vn 0.9010 0.0000 -0.4339
vn -0.0604 -0.9977 0.0291
vn -0.7331 -0.0000 0.6802
vn -0.0492 0.9977 0.0456
vn 0.7331 -0.0000 -0.6802
vn -0.0492 -0.9977 0.0456
vn -0.5000 -0.0000 0.8660
vn -0.0335 0.9977 0.0581
vn 0.5000 -0.0000 -0.8660
vn -0.0335 -0.9977 0.0581
vn -0.2225 -0.0000 0.9749
vn -0.0149 0.9977 0.0654
vn 0.2225 0.0000 -0.9749
vn -0.0149 -0.9977 0.0654
vn 0.0747 0.0000 0.9972
vn 0.0050 0.9977 0.0669
vn -0.0747 0.0000 -0.9972
vn 0.0050 -0.9977 0.0669
vn 0.3653 -0.0000 0.9309
vn 0.0245 0.9977 0.0624
vn -0.3653 -0.0000 -0.9309
vn 0.0245 -0.9977 0.0624
vn 0.6235 0.0000 0.7818
vn 0.0418 0.9977 0.0524
vn -0.6235 -0.0000 -0.7818
vn 0.0418 -0.9977 0.0524
vn 0.8262 0.0000 0.5633
vn 0.0554 0.9977 0.0378
vn -0.8262 0.0000 -0.5633
vn 0.0554 -0.9977 0.0378
vn 0.9556 0.0000 0.2948
vn 0.0641 0.9977 0.0198
vn -0.9556 0.0000 -0.2948
vn 0.0641 -0.9977 0.0198
g Circle_Circle.001_Material.002
usemtl Material.002
s 1
f 15/1/1 14/2/2 46/3/3 47/4/4
f 2/5/5 1/6/6 33/7/7 34/8/8
f 29/9/9 28/10/10 60/11/11 61/12/12
f 16/13/13 15/1/1 47/4/4 48/14/14
f 3/15/15 2/5/5 34/8/8 35/16/16
f 30/17/17 29/9/9 61/12/12 62/18/18
f 17/19/7 16/13/13 48/14/14 49/20/7
f 4/21/19 3/15/15 35/16/16 36/22/20
f 31/23/21 30/17/17 62/18/18 63/24/22
f 18/25/23 17/19/7 49/20/7 50/26/24
f 5/27/25 4/21/19 36/22/20 37/28/26
f 32/29/27 31/23/21 63/24/22 64/30/28
f 19/31/29 18/25/23 50/26/24 51/32/30
f 6/33/31 5/27/25 37/28/26 38/34/32
f 1/6/6 32/29/27 64/30/28 33/7/7
f 20/35/33 19/31/29 51/32/30 52/36/34
f 7/37/35 6/33/31 38/34/32 39/38/36
f 21/39/37 20/35/33 52/36/34 53/40/38
f 8/41/39 7/37/35 39/38/36 40/42/40
f 22/43/41 21/39/37 53/40/38 54/44/42
f 9/45/43 8/41/39 40/42/40 41/46/44
f 23/47/45 22/43/41 54/44/42 55/48/46
f 10/49/47 9/45/43 41/46/44 42/50/48
f 24/51/49 23/47/45 55/48/46 56/52/50
f 11/53/51 10/49/47 42/50/48 43/54/52
f 25/55/53 24/51/49 56/52/50 57/56/54
f 12/57/55 11/53/51 43/54/52 44/58/56
f 26/59/57 25/55/53 57/56/54 58/60/58
f 13/61/59 12/57/55 44/58/56 45/62/60
f 27/63/61 26/59/57 58/60/58 59/64/62
f 14/2/2 13/61/59 45/62/60 46/3/3
f 28/10/10 27/63/61 59/64/62 60/11/11
f 55/48/46 54/44/42 86/65/63 87/66/63
f 66/67/63 65/68/63 96/69/63 95/70/63 94/71/63 93/72/63 92/73/63 91/74/63 90/75/63 89/76/63 88/77/63 87/78/63 86/79/63 85/80/63 84/81/63 83/82/63 82/83/63 81/84/63 80/85/63 79/86/63 78/87/63 77/88/63 76/89/63 75/90/63 74/91/63 73/92/63 72/93/63 71/94/63 70/95/63 69/96/63 68/97/63 67/98/63
f 42/50/48 41/46/44 73/99/63 74/100/63
f 56/52/50 55/48/46 87/66/63 88/101/63
f 43/54/52 42/50/48 74/100/63 75/102/63
f 57/56/54 56/52/50 88/101/63 89/103/63
f 44/58/56 43/54/52 75/102/63 76/104/63
f 58/60/58 57/56/54 89/103/63 90/105/63
f 45/62/60 44/58/56 76/104/63 77/106/63
f 59/64/62 58/60/58 90/105/63 91/107/63
f 46/3/3 45/62/60 77/106/63 78/108/63
f 60/11/11 59/64/62 91/107/63 92/109/63
f 47/4/4 46/3/3 78/108/63 79/110/63
f 34/8/8 33/7/7 65/111/63 66/112/63
f 61/12/12 60/11/11 92/109/63 93/113/63
f 48/14/14 47/4/4 79/110/63 80/114/63
f 35/16/16 34/8/8 66/112/63 67/115/63
f 62/18/18 61/12/12 93/113/63 94/116/63
f 49/20/7 48/14/14 80/114/63 81/117/63
f 36/22/20 35/16/16 67/115/63 68/118/63
f 63/24/22 62/18/18 94/116/63 95/119/63
f 50/26/24 49/20/7 81/117/63 82/120/63
f 37/28/26 36/22/20 68/118/63 69/121/63
f 64/30/28 63/24/22 95/119/63 96/122/63
f 51/32/30 50/26/24 82/120/63 83/123/63
f 38/34/32 37/28/26 69/121/63 70/124/63
f 33/7/7 64/30/28 96/122/63 65/111/63
f 52/36/34 51/32/30 83/123/63 84/125/63
f 39/38/36 38/34/32 70/124/63 71/126/63
f 53/40/38 52/36/34 84/125/63 85/127/63
f 40/42/40 39/38/36 71/126/63 72/128/63
f 54/44/42 53/40/38 85/127/63 86/65/63
f 41/46/44 40/42/40 72/128/63 73/99/63
g Circle_Circle.001_Material.003
usemtl Material.003
f 97/129/53 101/130/64 102/131/65 98/132/66
f 98/132/66 102/131/65 103/133/67 99/134/43
f 99/135/43 103/136/67 104/137/68 100/138/69
f 100/138/69 104/137/68 101/130/64 97/129/53
f 101/130/64 105/139/70 106/140/71 102/131/65
f 102/131/65 106/140/71 107/141/72 103/133/67
f 103/136/67 107/142/72 108/143/73 104/137/68
f 104/137/68 108/143/73 105/139/70 101/130/64
f 105/139/70 109/144/74 110/145/75 106/140/71
f 106/140/71 110/145/75 111/146/76 107/141/72
f 107/142/72 111/147/76 112/148/77 108/143/73
f 108/143/73 112/148/77 109/144/74 105/139/70
f 109/144/74 113/149/78 114/150/79 110/145/75
f 110/145/75 114/150/79 115/151/80 111/146/76
f 111/147/76 115/152/80 116/153/81 112/148/77
f 112/148/77 116/153/81 113/149/78 109/144/74
f 113/149/78 117/154/82 118/155/83 114/150/79
f 114/150/79 118/155/83 119/156/84 115/151/80
f 115/152/80 119/157/84 120/158/85 116/153/81
f 116/153/81 120/158/85 117/154/82 113/149/78
f 117/154/82 121/159/86 122/160/87 118/155/83
f 118/155/83 122/160/87 123/161/88 119/156/84
f 119/157/84 123/162/88 124/163/89 120/158/85
f 120/158/85 124/163/89 121/159/86 117/154/82
f 121/159/86 125/164/90 126/165/91 122/160/87
f 122/160/87 126/165/91 127/166/92 123/161/88
f 123/162/88 127/167/92 128/168/93 124/163/89
f 124/163/89 128/168/93 125/164/90 121/159/86
f 125/164/90 129/169/94 130/170/95 126/165/91
f 126/165/91 130/170/95 131/171/96 127/166/92
f 127/167/92 131/172/96 132/173/97 128/168/93
f 128/168/93 132/173/97 129/169/94 125/164/90
f 129/169/94 133/174/98 134/175/99 130/170/95
f 130/170/95 134/175/99 135/176/100 131/171/96
f 131/172/96 135/177/100 136/178/101 132/173/97
f 132/173/97 136/178/101 133/174/98 129/169/94
f 133/174/98 137/179/102 138/180/103 134/175/99
f 134/175/99 138/180/103 139/181/104 135/176/100
f 135/177/100 139/182/104 140/183/105 136/178/101
f 136/178/101 140/183/105 137/179/102 133/174/98
f 137/184/102 141/185/106 142/186/107 138/187/103
f 138/187/103 142/186/107 143/188/108 139/189/104
f 139/190/104 143/191/108 144/192/109 140/193/105
f 140/193/105 144/192/109 141/185/106 137/184/102
f 141/185/106 145/194/110 146/195/111 142/186/107
f 142/186/107 146/195/111 147/196/112 143/188/108
f 143/191/108 147/197/112 148/198/113 144/192/109
f 144/192/109 148/198/113 145/194/110 141/185/106
f 145/194/110 149/199/114 150/200/115 146/195/111
f 146/195/111 150/200/115 151/201/116 147/196/112
f 147/197/112 151/202/116 152/203/117 148/198/113
f 148/198/113 152/203/117 149/199/114 145/194/110
f 149/199/114 153/204/118 154/205/119 150/200/115
f 150/200/115 154/205/119 155/206/120 151/201/116
f 151/202/116 155/207/120 156/208/121 152/203/117
f 152/203/117 156/208/121 153/204/118 149/199/114
f 153/204/118 157/209/122 158/210/123 154/205/119
f 154/205/119 158/210/123 159/211/124 155/206/120
f 155/207/120 159/212/124 160/213/125 156/208/121
f 156/208/121 160/213/125 157/209/122 153/204/118
f 157/209/122 161/214/126 162/215/127 158/210/123
f 158/210/123 162/215/127 163/216/128 159/211/124
f 159/212/124 163/217/128 164/218/129 160/213/125
f 160/213/125 164/218/129 161/214/126 157/209/122
f 161/214/126 165/219/130 166/220/131 162/215/127
f 162/215/127 166/220/131 167/221/132 163/216/128
f 163/217/128 167/222/132 168/223/133 164/218/129
f 164/218/129 168/223/133 165/219/130 161/214/126
f 165/219/130 169/224/134 170/225/135 166/220/131
f 166/220/131 170/225/135 171/226/136 167/221/132
f 167/222/132 171/227/136 172/228/137 168/223/133
f 168/223/133 172/228/137 169/224/134 165/219/130
f 169/224/134 173/229/138 174/230/139 170/225/135
f 170/225/135 174/230/139 175/231/140 171/226/136
f 171/227/136 175/232/140 176/233/141 172/228/137
f 172/228/137 176/233/141 173/229/138 169/224/134
f 173/229/138 177/234/142 178/235/143 174/230/139
f 174/230/139 178/235/143 179/236/144 175/231/140
f 175/232/140 179/237/144 180/238/145 176/233/141
f 176/233/141 180/238/145 177/234/142 173/229/138
f 177/234/142 97/129/53 98/132/66 178/235/143
f 178/235/143 98/132/66 99/134/43 179/236/144
f 179/237/144 99/135/43 100/138/69 180/238/145
f 180/238/145 100/138/69 97/129/53 177/234/142
